<?xml version="1.0" standalone="no"?>
<!DOCTYPE svg PUBLIC "-//W3C//DTD SVG 20010904//EN"
 "http://www.w3.org/TR/2001/REC-SVG-20010904/DTD/svg10.dtd">
<svg version="1.0" xmlns="http://www.w3.org/2000/svg"
 width="642.000000pt" height="654.000000pt" viewBox="0 0 642.000000 654.000000"
 preserveAspectRatio="xMidYMid meet">

<g transform="translate(0.000000,654.000000) scale(0.100000,-0.100000)"
fill="#000000" stroke="none">
<path d="M2980 6094 c-89 -8 -266 -35 -330 -50 -139 -33 -454 -140 -538 -183
l-40 -20 5 -83 c3 -46 7 -85 9 -87 2 -2 32 9 66 24 413 181 622 231 1008 242
157 4 208 2 335 -17 160 -23 381 -77 584 -141 68 -22 125 -38 126 -37 9 13 25
152 19 158 -15 14 -179 68 -335 110 -247 67 -351 81 -624 85 -132 1 -260 1
-285 -1z"/>
<path d="M1795 5956 c-46 -21 -91 -74 -120 -141 -14 -33 -33 -73 -41 -90 -13
-28 -17 -65 -15 -170 1 -22 -4 -50 -10 -62 -7 -13 -8 -33 -4 -50 9 -32 14
-103 14 -180 0 -28 5 -54 10 -58 6 -3 8 -24 5 -48 -7 -47 15 -123 67 -232 18
-36 29 -68 26 -71 -3 -4 -33 19 -66 51 -102 97 -197 252 -252 409 -72 209
-266 218 -326 16 -28 -94 -16 -304 20 -361 8 -13 18 -45 21 -71 4 -26 16 -58
26 -71 11 -13 22 -39 25 -56 3 -18 13 -45 23 -59 31 -47 42 -66 57 -99 8 -17
27 -41 42 -52 14 -12 37 -37 50 -56 13 -19 34 -37 47 -41 13 -3 39 -21 57 -41
l34 -34 -53 20 c-118 47 -189 98 -270 197 -92 113 -126 145 -162 153 -71 15
-141 -17 -172 -80 -37 -74 -11 -252 52 -360 67 -116 121 -195 148 -219 16 -14
38 -40 51 -57 17 -26 30 -33 54 -33 26 0 35 -6 47 -33 13 -28 19 -32 49 -29
27 3 38 -2 61 -30 27 -32 28 -33 71 -21 39 10 46 9 62 -8 12 -13 31 -19 60
-19 36 -1 39 -2 22 -12 -11 -6 -65 -13 -120 -16 -122 -5 -212 16 -331 79 -68
35 -85 40 -124 36 -35 -4 -51 -13 -78 -42 -34 -37 -35 -39 -29 -105 6 -74 30
-131 71 -169 14 -14 26 -33 26 -43 0 -44 50 -88 100 -88 11 0 20 -7 20 -15 0
-9 11 -27 25 -41 20 -20 32 -24 54 -19 25 5 32 2 47 -24 20 -33 62 -48 92 -32
15 8 23 4 44 -20 30 -33 71 -38 100 -12 17 15 20 15 41 -5 30 -28 64 -28 94 0
l23 21 23 -21 c29 -28 47 -28 82 0 19 15 43 22 74 23 25 0 73 11 107 24 54 21
63 22 90 10 15 -8 33 -27 39 -43 9 -26 7 -31 -24 -57 -49 -40 -121 -72 -292
-129 -193 -63 -293 -116 -378 -200 -110 -108 -161 -234 -147 -369 l7 -64 -63
7 c-155 16 -265 19 -301 7 -46 -15 -47 -27 -6 -59 18 -13 177 -36 332 -47 95
-7 99 -9 171 -56 119 -79 155 -87 417 -89 4 0 12 -21 18 -46 33 -129 85 -166
150 -105 17 16 36 43 42 60 6 17 16 31 22 30 7 0 29 -23 50 -50 46 -60 95 -87
134 -73 37 13 64 55 70 109 5 42 8 46 27 40 12 -4 42 -9 68 -12 41 -5 50 -2
73 21 21 21 26 34 23 64 -3 44 -28 43 252 11 146 -17 267 -22 580 -26 391 -5
395 -5 425 -28 97 -73 248 -109 361 -87 82 17 150 52 212 112 l52 50 143 0
c323 1 577 20 797 60 114 21 467 112 498 129 31 17 28 57 -7 90 -38 36 -184
124 -263 160 -34 16 -103 39 -153 52 -80 21 -112 24 -285 23 -185 0 -199 -1
-275 -27 l-80 -27 -57 63 c-32 34 -93 104 -135 156 -43 52 -95 114 -117 139
-55 66 -65 91 -41 105 11 6 36 26 55 46 19 19 50 48 68 64 l33 30 24 -23 c14
-14 30 -20 40 -16 17 6 44 -5 67 -28 23 -23 54 -28 68 -11 17 20 26 19 50 -5
23 -23 72 -26 92 -6 12 12 18 11 39 -5 32 -25 68 -24 96 3 21 20 24 20 41 5
30 -27 67 -21 95 14 21 27 26 29 44 19 28 -18 70 -5 86 27 10 18 24 27 47 30
42 4 60 19 60 49 0 19 5 24 26 24 32 0 94 59 94 89 0 11 15 41 34 65 45 59 59
106 54 172 -5 64 -33 99 -88 114 -42 11 -72 4 -155 -37 -109 -54 -169 -68
-297 -68 -79 0 -121 4 -130 13 -9 9 -4 12 28 12 27 0 45 6 56 19 14 17 21 18
46 9 36 -14 88 4 97 33 5 14 16 18 52 17 47 -1 73 17 73 49 0 8 12 13 30 13
37 0 70 31 70 65 0 14 6 25 13 25 22 0 52 40 104 140 27 52 54 104 60 115 18
36 53 149 59 196 12 90 -41 187 -112 205 -13 3 -41 3 -61 -1 -39 -7 -88 -52
-178 -162 -22 -27 -60 -66 -85 -86 -74 -61 -240 -141 -240 -116 0 5 6 9 13 9
11 0 29 15 106 92 100 100 110 113 114 149 2 21 17 55 35 80 24 32 32 54 32
84 0 29 6 47 20 60 15 13 20 29 18 56 -1 21 4 45 12 54 7 8 12 30 12 48 -1 18
5 66 14 108 13 68 13 85 0 162 -18 100 -44 146 -99 178 -49 27 -104 22 -152
-16 -40 -30 -62 -69 -111 -198 -56 -147 -106 -229 -219 -360 -42 -49 -81 -68
-51 -25 9 12 16 34 16 49 0 14 9 34 20 44 13 11 20 31 20 53 0 19 10 50 22 70
18 29 20 40 11 63 -9 23 -8 31 8 45 21 19 25 55 8 85 -7 14 -7 29 2 54 10 26
10 40 1 59 -7 16 -8 28 -2 31 14 8 13 72 -1 81 -6 4 -9 20 -6 39 3 18 0 43 -7
57 -7 13 -11 39 -9 58 5 44 -46 188 -83 237 -38 50 -81 73 -138 73 -43 0 -53
-4 -86 -38 -47 -47 -56 -82 -64 -246 -10 -200 -57 -374 -137 -507 -73 -122
-132 -174 -155 -138 -11 18 -199 104 -313 143 -146 51 -280 76 -444 83 -289
12 -564 -51 -848 -194 -59 -29 -111 -53 -117 -53 -15 0 -106 103 -136 154 -36
62 -95 216 -107 280 -5 29 -13 125 -18 213 -9 173 -23 225 -74 272 -32 29
-100 37 -142 17z m2685 -125 c6 -16 23 -34 36 -40 34 -15 27 -32 -24 -55 -33
-15 -42 -25 -42 -44 0 -23 3 -24 38 -19 20 4 46 8 56 9 42 6 23 -21 -29 -42
-50 -20 -56 -26 -53 -49 3 -28 10 -29 86 -16 33 6 42 5 42 -7 0 -9 -24 -22
-62 -34 -56 -18 -63 -23 -66 -49 l-4 -28 72 7 c92 8 92 -11 0 -36 -75 -21 -88
-31 -69 -54 11 -13 25 -15 76 -11 38 4 65 2 69 -4 9 -16 4 -18 -80 -30 -75
-11 -77 -12 -74 -38 3 -25 6 -26 76 -29 55 -2 72 -6 72 -17 0 -12 -15 -15 -69
-15 -82 0 -101 -6 -101 -30 0 -14 17 -22 72 -37 39 -11 74 -25 76 -33 3 -9 -3
-11 -24 -6 -16 3 -55 9 -86 13 -58 6 -58 6 -58 -21 0 -16 7 -29 18 -33 65 -22
124 -55 116 -63 -7 -7 -30 -2 -68 15 -66 29 -79 30 -101 9 -21 -21 -7 -38 56
-65 48 -21 77 -45 66 -55 -3 -3 -28 6 -57 21 -61 31 -104 30 -108 -1 -2 -17
10 -29 62 -58 36 -20 68 -41 71 -46 12 -19 -20 -9 -83 24 -55 30 -64 32 -77
19 -8 -8 -15 -18 -15 -23 0 -10 80 -80 92 -80 4 0 8 -7 8 -15 0 -33 -38 -11
-109 63 -42 43 -93 90 -113 106 -21 16 -38 33 -38 38 0 6 18 31 41 56 119 136
192 360 208 638 10 175 14 192 45 204 25 9 40 -1 56 -39z m-2595 19 c15 -17
20 -48 27 -192 15 -304 80 -497 215 -639 29 -31 53 -61 53 -67 0 -6 -12 -18
-27 -26 -16 -8 -64 -51 -108 -95 -44 -45 -85 -81 -92 -81 -28 0 -23 25 15 63
33 34 39 45 31 60 -14 24 -34 21 -82 -11 -63 -43 -67 -45 -67 -29 0 7 29 34
65 60 43 31 63 51 59 61 -11 28 -38 27 -98 -4 -66 -33 -76 -35 -76 -20 0 9 21
24 103 74 23 14 26 20 17 36 -14 26 -32 25 -100 -4 -53 -24 -83 -25 -61 -3 6
6 39 23 73 37 64 27 76 44 46 64 -16 10 -93 0 -140 -19 -13 -5 -18 -2 -18 9 0
11 22 22 71 37 61 18 70 24 67 43 -3 19 -9 21 -73 21 -58 0 -70 3 -73 18 -3
14 4 17 50 17 31 0 63 6 73 14 19 14 19 15 1 35 -13 15 -31 21 -60 21 -50 0
-86 9 -86 21 0 5 32 9 71 9 l70 0 -3 27 c-3 24 -9 28 -58 38 -60 12 -80 21
-80 36 0 7 23 8 65 4 56 -6 66 -5 71 10 10 24 -15 44 -72 58 -32 8 -50 18 -52
29 -3 16 3 17 56 12 37 -4 62 -3 66 4 13 21 -7 40 -57 59 -34 12 -53 25 -55
37 -3 16 0 18 25 12 15 -3 45 -9 66 -13 36 -5 39 -4 35 18 -2 15 -17 31 -43
46 -45 25 -54 56 -17 61 14 2 22 10 22 22 0 24 26 50 49 50 10 0 26 -9 36 -20z
m-618 -488 c12 -9 41 -63 64 -122 115 -290 288 -473 532 -565 26 -10 47 -21
47 -25 0 -4 -9 -15 -21 -26 -12 -10 -28 -32 -36 -49 -9 -16 -19 -32 -23 -35
-5 -3 -28 -43 -53 -90 -32 -59 -52 -86 -66 -88 -18 -3 -15 6 26 84 44 83 45
88 28 100 -10 8 -22 14 -27 14 -4 0 -29 -30 -56 -66 -26 -37 -54 -74 -62 -82
-13 -14 -15 -14 -18 1 -2 9 17 46 42 83 51 74 57 99 24 110 -16 5 -27 0 -41
-17 -38 -47 -98 -109 -107 -109 -25 0 -15 25 37 85 46 54 55 70 46 83 -17 28
-38 19 -107 -46 -61 -57 -86 -69 -86 -40 0 5 30 38 67 72 48 45 65 67 60 79
-11 28 -40 19 -108 -33 -61 -48 -89 -60 -89 -41 0 5 29 32 64 60 66 53 77 66
68 89 -8 22 -41 13 -106 -28 -69 -44 -76 -46 -76 -27 0 6 24 28 53 47 80 53
92 71 57 90 -17 9 -31 5 -74 -19 -29 -17 -59 -31 -65 -31 -25 0 -8 21 44 52
52 32 71 58 40 58 -8 0 -39 -9 -70 -21 -31 -12 -59 -18 -62 -15 -5 5 20 17
115 57 16 6 22 15 18 25 -3 9 -6 20 -6 26 0 7 -18 9 -52 4 -97 -12 -103 -12
-103 4 0 10 22 21 64 32 74 20 79 23 65 46 -9 13 -28 18 -83 20 -85 3 -95 25
-14 30 87 5 75 51 -16 62 -37 4 -46 9 -46 25 0 17 6 19 51 16 31 -1 55 2 59 9
10 16 -22 48 -56 55 -41 9 -46 25 -15 52 32 27 44 28 73 5z m3823 -4 c16 -11
27 -25 24 -30 -3 -5 -28 -20 -55 -33 -34 -18 -49 -31 -49 -45 0 -22 4 -23 67
-20 49 2 73 -8 52 -21 -8 -5 -26 -9 -40 -9 -62 0 -119 -41 -87 -62 7 -4 37 -8
66 -8 39 0 52 -4 52 -15 0 -12 -14 -15 -63 -15 -65 0 -87 -11 -87 -41 0 -20
14 -26 80 -35 33 -4 50 -11 50 -21 0 -11 -15 -12 -78 -7 -88 7 -97 1 -85 -57
4 -24 19 -39 59 -65 91 -58 79 -76 -16 -24 -62 33 -88 37 -97 15 -7 -20 17
-47 78 -86 45 -28 62 -49 41 -49 -5 0 -37 18 -72 41 -67 43 -93 46 -98 12 -2
-15 9 -31 39 -54 87 -71 102 -86 95 -97 -4 -7 -32 8 -77 43 -74 57 -77 59
-103 49 -33 -13 -18 -50 37 -92 30 -22 61 -48 70 -57 25 -24 10 -39 -17 -18
-102 81 -149 111 -161 106 -28 -10 -15 -40 45 -106 56 -61 72 -87 52 -87 -5 0
-39 32 -76 70 -71 73 -91 83 -101 50 -7 -22 10 -59 55 -115 46 -57 54 -75 36
-75 -9 0 -41 35 -73 77 -64 85 -88 99 -99 59 -4 -18 5 -44 32 -95 37 -67 40
-89 11 -78 -7 3 -41 54 -75 115 -34 60 -73 124 -87 141 -30 35 -27 46 12 56
180 44 401 297 503 575 47 128 80 153 140 108z m-1692 -218 c193 -24 447 -122
638 -245 235 -152 414 -411 471 -680 30 -142 27 -271 -7 -395 -48 -168 -194
-392 -301 -460 -30 -19 -83 -57 -119 -84 -93 -71 -153 -97 -193 -84 -76 23
-70 26 -65 -31 6 -64 53 -156 161 -313 90 -133 102 -147 119 -130 26 26 -43
200 -119 305 -35 47 -38 77 -9 77 8 0 49 18 90 39 42 22 76 38 77 38 0 -1 2
-22 5 -47 7 -63 29 -206 50 -329 31 -180 -4 -345 -88 -416 -137 -116 -336 -90
-504 67 -135 127 -211 274 -254 491 -68 341 29 561 288 652 39 14 78 25 86 25
28 0 84 60 115 124 18 35 43 74 56 86 l23 22 13 -24 c7 -12 13 -48 13 -78 1
-83 -22 -144 -90 -237 -38 -52 25 -58 84 -8 58 51 102 148 109 244 5 53 11 79
25 93 53 53 88 -14 68 -130 -12 -71 -44 -142 -96 -213 -19 -26 -34 -52 -34
-58 0 -6 15 -11 33 -11 60 0 135 92 177 214 20 61 40 72 40 23 0 -67 -65 -202
-132 -273 -34 -36 -23 -46 31 -32 44 12 130 100 165 169 21 43 26 67 26 130 0
68 -3 81 -25 108 -14 16 -38 31 -53 33 -23 3 -28 9 -34 47 -8 48 -28 75 -72
98 -37 19 -99 12 -137 -16 -26 -19 -30 -20 -65 -5 -80 34 -158 -17 -204 -132
-13 -32 -28 -64 -34 -70 -6 -6 -41 -18 -77 -27 -111 -26 -197 -73 -270 -147
-106 -108 -149 -223 -149 -406 l0 -102 -67 -7 c-67 -6 -236 6 -362 26 -199 31
-414 114 -588 225 -147 93 -300 295 -386 506 -59 144 -35 456 50 634 57 121
172 271 288 375 56 50 197 144 268 181 132 66 338 132 482 153 111 16 372 19
483 5z m1652 -226 c0 -2 -9 0 -20 6 -11 6 -20 13 -20 16 0 2 9 0 20 -6 11 -6
20 -13 20 -16z m-4052 -262 c9 -11 37 -47 62 -82 55 -78 159 -167 251 -215 80
-42 219 -80 332 -90 79 -7 79 -8 73 -34 -3 -14 -9 -48 -12 -76 -4 -27 -11 -52
-15 -56 -5 -3 -12 -32 -17 -66 -8 -61 -33 -113 -53 -113 -7 0 -8 14 -3 43 5
23 9 67 9 97 0 49 -2 55 -21 58 -19 3 -25 -6 -43 -60 -24 -73 -46 -108 -67
-108 -19 0 -18 10 11 72 29 62 32 100 9 119 -14 11 -19 10 -35 -10 -11 -13
-19 -29 -19 -36 0 -20 -79 -115 -95 -115 -23 0 -18 16 24 72 45 59 57 94 40
114 -18 22 -38 17 -58 -16 -23 -38 -99 -120 -112 -120 -17 0 -9 25 19 55 61
67 79 137 36 143 -15 2 -29 -9 -48 -36 -38 -56 -105 -107 -119 -93 -8 8 3 25
41 63 58 58 71 84 50 105 -13 12 -24 6 -88 -47 -54 -46 -75 -59 -84 -50 -8 8
4 25 47 63 58 52 67 73 45 95 -19 19 -30 15 -87 -28 -40 -30 -57 -38 -65 -29
-8 8 -4 15 14 27 52 36 80 65 80 83 0 30 -26 33 -75 10 -25 -12 -52 -21 -60
-21 -29 0 -14 27 25 45 59 26 68 41 42 67 l-20 21 -42 -22 c-51 -26 -60 -26
-60 0 0 15 12 25 40 37 52 22 49 45 -5 52 -35 4 -40 8 -37 30 7 61 54 89 90
52z m4409 -14 c24 -28 19 -51 -12 -61 -64 -21 -70 -40 -20 -58 23 -9 35 -19
35 -32 0 -16 -5 -18 -25 -13 -14 3 -36 9 -50 12 -27 7 -55 -10 -55 -32 0 -8
20 -24 45 -36 25 -12 45 -28 45 -35 0 -17 -15 -16 -44 2 -12 8 -40 16 -62 18
-33 2 -39 -1 -42 -19 -2 -17 9 -29 47 -53 28 -17 51 -38 51 -46 0 -20 0 -20
-74 17 -55 27 -67 30 -81 18 -24 -20 -15 -40 34 -74 24 -17 49 -39 55 -48 23
-36 -6 -28 -74 21 -39 29 -79 51 -88 49 -36 -7 -24 -39 37 -100 34 -34 61 -65
61 -70 0 -22 -32 -2 -100 62 -41 38 -78 70 -81 70 -15 0 -30 -31 -24 -50 4
-12 29 -48 56 -80 46 -56 59 -80 41 -80 -10 0 -81 75 -117 123 -27 36 -57 48
-70 27 -10 -17 14 -78 51 -126 37 -48 42 -64 20 -64 -15 0 -73 76 -108 140
-12 20 -24 30 -35 28 -28 -5 -27 -59 2 -127 24 -58 26 -81 6 -81 -10 0 -56
103 -65 147 -8 36 -33 50 -54 29 -13 -12 -12 -25 1 -103 8 -48 11 -92 7 -96
-4 -5 -17 0 -29 12 -16 16 -21 34 -21 70 0 67 -10 111 -25 111 -8 0 -18 22
-25 52 -6 29 -13 63 -16 75 -6 21 -3 23 35 23 60 0 236 38 304 65 73 30 170
89 221 135 22 19 66 69 98 110 80 100 108 114 145 68z m-4335 -840 c20 -10 71
-27 114 -39 149 -41 360 -15 487 61 21 12 40 20 42 18 4 -4 45 -154 45 -164 0
-2 -6 -1 -14 2 -22 8 -25 -18 -10 -76 18 -70 19 -153 2 -148 -8 3 -16 32 -20
73 -8 78 -23 121 -46 130 -30 11 -39 -19 -29 -90 11 -76 3 -135 -18 -135 -12
0 -15 18 -15 88 0 98 -7 115 -41 110 -22 -3 -24 -8 -29 -78 -7 -94 -42 -167
-64 -131 -3 4 4 36 15 69 11 33 19 78 17 99 -3 33 -7 38 -29 41 -25 3 -27 -1
-43 -63 -17 -68 -58 -145 -77 -145 -13 0 -9 20 25 114 18 51 22 75 15 88 -19
36 -43 21 -72 -44 -30 -70 -81 -136 -91 -120 -4 6 9 43 29 81 40 81 43 96 15
111 -26 14 -36 7 -60 -38 -26 -50 -77 -105 -90 -97 -16 10 -12 22 25 71 40 52
45 89 15 99 -15 5 -32 -7 -74 -52 -44 -47 -57 -56 -67 -45 -11 10 -6 19 25 51
66 68 28 126 -39 61 -18 -18 -38 -29 -44 -26 -14 9 -14 49 0 63 15 15 3 33
-21 33 -37 0 -55 71 -22 89 13 7 28 3 62 -17 25 -14 61 -34 82 -44z m4312 18
c-1 -25 -8 -44 -19 -52 -12 -9 -16 -20 -11 -38 5 -21 3 -26 -12 -26 -9 0 -28
7 -40 16 -31 21 -66 15 -70 -14 -3 -16 8 -33 37 -60 23 -21 41 -41 41 -45 0
-19 -31 -2 -83 44 -48 43 -59 49 -77 39 -32 -17 -24 -52 20 -95 36 -36 53 -75
31 -75 -10 0 -64 61 -98 113 -50 73 -95 26 -53 -55 12 -23 31 -53 41 -67 13
-16 16 -28 10 -34 -13 -13 -39 17 -92 106 -41 69 -61 81 -79 48 -11 -21 2 -66
39 -139 25 -49 26 -62 7 -62 -17 0 -71 108 -81 163 -8 41 -35 63 -53 45 -17
-17 -15 -79 4 -150 16 -63 14 -74 -9 -65 -17 6 -34 70 -42 151 -5 54 -15 75
-38 76 -16 0 -27 -55 -27 -138 l-1 -87 -21 25 c-19 23 -20 33 -14 116 6 93 3
104 -35 104 -10 0 -35 -85 -45 -152 -3 -27 -10 -48 -15 -48 -20 0 -21 35 -4
115 18 88 16 105 -15 105 -13 0 -24 -16 -40 -57 -12 -32 -24 -70 -27 -85 -9
-47 -30 -46 -23 1 1 8 19 50 40 93 21 44 46 106 56 139 14 47 21 58 33 53 9
-4 61 -23 116 -43 97 -35 104 -36 235 -35 122 0 141 3 203 27 38 15 92 41 120
57 70 41 92 37 91 -14z m-3554 -237 c20 -40 21 -69 2 -69 -6 0 -15 20 -21 44
-19 78 -14 86 19 25z m329 -381 c45 -29 102 -66 128 -83 32 -20 64 -54 96
-102 76 -115 162 -178 260 -189 86 -10 81 10 -15 56 -53 26 -106 62 -147 100
-35 33 -60 60 -55 60 5 0 43 -9 84 -21 277 -77 304 -81 522 -87 l206 -4 7 -27
c34 -148 95 -290 172 -400 24 -35 41 -66 38 -69 -12 -12 -523 -2 -690 14 -93
8 -230 18 -302 21 l-133 6 -32 42 c-18 23 -60 60 -95 83 -35 23 -63 46 -63 51
0 5 12 12 26 15 38 10 98 50 117 79 15 23 15 25 -2 30 -10 2 -69 -2 -131 -10
l-113 -15 -66 31 c-91 42 -193 64 -263 58 -63 -6 -121 -33 -126 -60 -3 -15 7
-17 85 -17 153 0 306 -70 375 -171 24 -35 60 -69 104 -99 74 -49 135 -123 117
-141 -17 -17 -72 13 -121 65 -40 43 -85 66 -99 52 -3 -3 6 -33 22 -67 15 -34
29 -78 32 -99 5 -37 -9 -80 -27 -80 -6 0 -41 46 -78 103 -53 80 -73 103 -93
105 -25 3 -26 1 -31 -60 -5 -65 -41 -153 -58 -143 -11 7 -40 100 -40 129 0 46
-12 51 -123 48 -166 -5 -271 30 -345 113 -51 58 -66 102 -59 170 9 91 70 178
189 271 34 26 171 85 278 119 190 60 222 74 290 125 36 27 68 49 72 49 4 1 43
-23 87 -51z m2154 -177 c54 -68 112 -136 172 -200 74 -78 292 -293 308 -303
23 -14 -3 -20 -115 -29 -87 -6 -347 -13 -390 -9 -3 0 0 21 8 47 22 72 17 230
-11 394 -28 163 -30 183 -12 155 7 -10 25 -35 40 -55z m973 -265 c52 -15 123
-43 172 -71 80 -45 100 -65 64 -65 -10 0 -61 -13 -112 -30 -86 -27 -304 -68
-452 -85 l-56 -7 -19 41 c-10 22 -56 81 -102 131 -46 50 -82 93 -80 95 13 12
208 23 340 19 122 -3 175 -10 245 -28z"/>
<path d="M3511 5047 c-6 -6 -11 -19 -11 -30 0 -27 44 -19 48 9 3 25 -20 38
-37 21z"/>
<path d="M2710 5025 c-17 -20 -6 -45 20 -45 17 0 21 5 18 27 -4 31 -20 40 -38
18z"/>
<path d="M2804 5016 c-7 -31 1 -46 26 -46 21 0 37 40 25 59 -12 21 -44 12 -51
-13z"/>
<path d="M3597 5014 c-13 -13 -7 -42 10 -48 21 -8 36 6 31 30 -3 19 -29 30
-41 18z"/>
<path d="M2864 4925 c-8 -21 3 -48 19 -43 19 7 22 58 2 58 -8 0 -18 -7 -21
-15z"/>
<path d="M2750 4910 c-13 -24 2 -60 25 -60 16 0 30 42 21 65 -8 21 -33 19 -46
-5z"/>
<path d="M3520 4900 c0 -23 5 -30 19 -30 22 0 36 40 18 52 -24 15 -37 8 -37
-22z"/>
<path d="M3616 4923 c-12 -12 -6 -33 9 -33 8 0 15 6 15 14 0 17 -14 28 -24 19z"/>
<path d="M2295 4786 c-92 -43 -144 -126 -145 -229 0 -96 42 -167 124 -209 31
-16 54 -19 112 -16 61 3 79 8 116 33 58 41 96 99 110 168 11 50 10 64 -6 111
-47 137 -187 201 -311 142z m184 -92 c63 -80 -24 -176 -103 -113 -31 24 -36
81 -10 117 23 33 86 31 113 -4z m52 -175 c9 -18 7 -25 -10 -43 -17 -16 -25
-18 -39 -10 -19 12 -27 37 -18 60 8 22 54 17 67 -7z"/>
<path d="M3844 4786 c-77 -36 -134 -126 -134 -212 0 -61 37 -140 86 -183 57
-50 99 -64 179 -59 76 5 134 40 176 106 45 72 47 144 4 237 -53 115 -194 166
-311 111z m204 -88 c29 -28 30 -83 0 -115 -55 -59 -150 12 -128 97 13 51 81
61 128 18z m70 -174 c4 -29 -34 -61 -56 -48 -22 14 -28 54 -10 65 23 16 63 6
66 -17z"/>
<path d="M2792 4464 c-64 -27 -66 -104 -3 -136 75 -38 153 42 106 109 -22 32
-65 43 -103 27z"/>
<path d="M3446 4449 c-55 -43 -18 -129 56 -129 35 0 88 48 88 80 0 59 -91 91
-144 49z"/>
<path d="M1984 4365 c-9 -23 4 -47 23 -43 11 2 19 14 21 31 3 22 -1 27 -18 27
-11 0 -23 -7 -26 -15z"/>
<path d="M4315 4361 c-8 -15 3 -31 21 -31 9 0 14 7 12 17 -4 20 -24 28 -33 14z"/>
<path d="M1912 4298 c2 -12 11 -24 21 -26 14 -3 18 1 15 20 -2 12 -11 24 -21
26 -14 3 -18 -1 -15 -20z"/>
<path d="M4372 4298 c2 -15 11 -24 26 -26 24 -4 30 16 10 36 -20 20 -40 14
-36 -10z"/>
<path d="M2040 4284 c0 -21 4 -25 23 -22 14 2 23 11 25 26 3 18 -1 22 -22 22
-21 0 -26 -5 -26 -26z"/>
<path d="M4250 4290 c0 -26 38 -47 46 -25 9 23 -3 45 -26 45 -13 0 -20 -7 -20
-20z"/>
<path d="M3980 4273 c-25 -10 -30 -27 -13 -46 10 -10 13 -21 7 -27 -37 -36
-328 -108 -529 -131 -162 -19 -456 -17 -595 4 -207 31 -448 95 -485 129 -5 5
-10 21 -10 36 0 26 -2 27 -45 25 -74 -4 -124 -58 -94 -102 8 -11 24 -21 36
-21 11 0 44 -13 72 -29 99 -56 387 -131 581 -153 134 -14 428 -14 545 1 113
15 295 53 394 83 65 19 137 52 209 96 27 16 29 16 41 0 18 -25 35 -22 46 7 14
36 -8 97 -40 112 -32 15 -100 24 -120 16z"/>
<path d="M1956 4204 c-29 -35 -29 -64 -1 -64 8 0 15 8 15 19 0 10 7 24 15 31
15 13 21 51 8 49 -5 0 -21 -16 -37 -35z"/>
<path d="M4340 4200 c0 -13 48 -36 56 -27 4 4 1 13 -6 22 -14 17 -50 20 -50 5z"/>
<path d="M2032 4128 c-14 -14 -16 -38 -3 -38 10 0 26 39 19 46 -2 2 -10 -2
-16 -8z"/>
<path d="M4325 4110 c-4 -6 -3 -16 3 -22 6 -6 12 -6 17 2 4 6 3 16 -3 22 -6 6
-12 6 -17 -2z"/>
<path d="M1925 4000 c-9 -15 4 -30 26 -30 12 0 19 7 19 20 0 21 -33 29 -45 10z"/>
<path d="M1992 3863 c5 -26 38 -29 38 -4 0 15 -6 21 -21 21 -14 0 -19 -5 -17
-17z"/>
<path d="M2336 3423 c-8 -20 27 -59 43 -49 24 15 5 66 -25 66 -6 0 -15 -8 -18
-17z"/>
<path d="M4987 2693 c-9 -8 -9 -56 -1 -77 8 -20 53 -21 60 -1 10 24 -16 85
-35 85 -10 0 -21 -3 -24 -7z"/>
<path d="M3066 5685 c-32 -7 -62 -19 -67 -27 -5 -7 -6 -49 -4 -93 3 -63 8 -81
20 -83 23 -5 101 57 158 124 16 19 16 24 2 57 -17 41 -19 41 -109 22z m18 -94
c3 -5 -1 -14 -9 -21 -13 -10 -15 -9 -15 9 0 21 14 28 24 12z"/>
<path d="M3210 5666 c-14 -39 -19 -148 -6 -168 15 -25 152 -27 142 -2 -3 9 -6
20 -6 25 0 5 -20 9 -45 9 -25 0 -45 5 -45 10 0 6 16 10 35 10 28 0 35 4 35 20
0 15 -7 20 -25 20 -48 0 -25 19 27 22 48 3 52 5 59 32 5 17 6 32 3 35 -3 3
-41 8 -85 10 -77 3 -79 3 -89 -23z"/>
<path d="M2760 5655 c-97 -29 -90 -23 -90 -76 0 -26 5 -51 10 -54 6 -3 10 -26
10 -50 0 -28 5 -45 14 -48 27 -11 89 15 130 53 l41 38 -22 30 c-20 27 -20 30
-5 46 15 15 15 19 2 44 -19 32 -31 35 -90 17z m2 -107 c-6 -6 -15 -8 -19 -4
-4 4 -1 11 7 16 19 12 27 3 12 -12z m38 -36 c0 -5 -11 -14 -25 -20 -31 -14
-35 -15 -35 -3 0 7 22 19 58 30 1 1 2 -3 2 -7z"/>
<path d="M3434 5641 c-39 -24 -64 -58 -64 -88 0 -19 7 -22 57 -29 51 -6 55 -8
38 -20 -13 -10 -21 -11 -26 -3 -7 11 -49 -8 -49 -23 0 -10 32 -25 50 -23 8 1
25 3 37 3 12 1 34 12 48 25 35 30 25 54 -26 62 -59 10 -37 24 28 18 l56 -6 -7
39 c-5 21 -12 45 -18 52 -16 18 -89 14 -124 -7z"/>
<path d="M3600 5550 c-46 -91 -47 -101 -21 -117 18 -11 24 -5 66 74 43 81 44
87 29 104 -10 11 -21 19 -25 19 -5 0 -27 -36 -49 -80z"/>
<path d="M2537 5593 l-58 -26 7 -46 c4 -25 10 -48 14 -51 5 -3 11 -21 15 -40
10 -55 40 -64 109 -32 31 14 56 28 56 32 0 3 -6 14 -13 24 -13 17 -15 17 -45
2 -35 -18 -52 -20 -52 -7 0 5 14 14 30 21 32 13 34 18 21 39 -6 10 -13 11 -29
2 -28 -15 -37 -14 -22 3 6 8 27 20 46 26 30 10 34 16 34 46 0 30 -3 34 -27 34
-16 0 -54 -12 -86 -27z"/>
<path d="M4757 5435 c1 -85 5 -155 10 -156 4 -1 20 31 35 69 15 39 38 89 52
111 14 22 26 43 26 45 0 6 -111 86 -119 86 -3 0 -5 -70 -4 -155z"/>
<path d="M3732 5563 c-47 -23 -72 -59 -72 -104 0 -44 27 -79 60 -79 11 0 20
-4 20 -9 0 -5 10 -11 22 -15 17 -4 30 2 50 25 16 17 28 32 28 35 0 5 -40 21
-77 30 -22 6 -25 4 -20 -10 4 -10 1 -16 -8 -16 -22 0 -18 27 7 44 28 20 48 20
48 2 0 -16 60 -40 71 -29 11 12 20 97 11 109 -23 35 -88 43 -140 17z"/>
<path d="M1457 5519 c-26 -17 -47 -33 -47 -35 0 -1 13 -25 28 -51 15 -26 38
-77 51 -113 37 -109 43 -120 57 -120 9 0 11 10 9 33 -14 104 -24 271 -19 292
9 35 -20 33 -79 -6z"/>
<path d="M2404 5499 l7 -41 -33 27 -33 28 -10 -47 c-10 -45 -25 -54 -25 -14 0
14 -8 18 -35 18 -19 0 -35 -3 -34 -7 0 -5 13 -46 28 -93 25 -82 28 -85 59 -88
30 -3 32 -1 38 38 8 50 15 55 53 35 35 -18 71 -20 71 -4 0 6 -7 51 -16 100
-16 89 -17 89 -47 89 -29 0 -29 -1 -23 -41z"/>
<path d="M3883 5445 c-29 -40 -53 -78 -53 -83 0 -5 7 -15 15 -22 13 -11 20 -9
38 9 13 11 26 21 29 21 3 0 13 -20 24 -45 10 -25 21 -45 24 -45 5 0 85 89 117
130 9 12 8 20 -6 39 l-18 24 -30 -32 -29 -33 -23 56 c-12 31 -26 56 -29 55 -4
0 -31 -33 -59 -74z"/>
<path d="M5276 5098 c-2 -13 -11 -61 -20 -108 l-16 -85 30 -40 c16 -22 35 -38
42 -37 32 9 120 1 146 -12 43 -22 99 -90 111 -133 15 -51 13 -126 -3 -194 -11
-48 -11 -59 1 -75 69 -92 192 -426 243 -659 73 -341 76 -698 8 -1020 -57 -273
-212 -649 -351 -854 -114 -168 -359 -442 -511 -570 -214 -181 -386 -291 -671
-430 -212 -104 -377 -155 -655 -202 -120 -21 -169 -23 -430 -24 -239 0 -314 4
-395 18 -517 92 -859 255 -1335 636 -207 166 -409 392 -543 609 -165 266 -299
622 -352 932 -25 147 -31 502 -11 674 23 201 104 502 186 696 45 106 44 102
22 172 -12 35 -26 83 -32 106 l-11 44 -28 -44 c-69 -110 -173 -381 -230 -598
-95 -366 -112 -758 -46 -1111 51 -281 103 -440 221 -685 217 -448 528 -802
986 -1119 75 -52 139 -95 143 -95 4 0 28 -14 53 -31 138 -93 375 -199 567
-253 246 -69 244 -69 425 -98 189 -30 568 -32 750 -4 280 42 394 70 605 146
218 78 594 299 825 484 72 58 284 263 346 336 204 240 292 370 409 605 121
244 181 434 242 770 15 82 18 152 17 395 0 258 -3 310 -22 417 -39 220 -109
477 -163 598 -9 22 -33 77 -53 123 -47 111 -116 237 -170 308 -24 33 -49 76
-55 97 -7 20 -29 59 -50 85 -20 26 -52 70 -71 97 -38 56 -128 155 -141 155 -5
0 -10 -10 -13 -22z"/>
<path d="M965 4992 c-30 -36 -115 -167 -115 -176 0 -3 16 2 35 10 41 17 115
18 150 2 14 -6 28 -9 31 -5 7 7 -55 207 -64 207 -4 0 -21 -17 -37 -38z"/>
<path d="M5604 3644 c-9 -20 -25 -41 -36 -47 -22 -14 -24 -43 -3 -51 9 -3 25
-21 36 -41 26 -44 40 -44 63 -1 10 18 29 39 42 45 31 14 30 25 -1 45 -14 9
-33 33 -42 51 -21 45 -38 44 -59 -1z"/>
<path d="M5421 3451 c-11 -11 -25 -38 -31 -59 -15 -57 -43 -88 -101 -108 -90
-33 -89 -56 7 -105 63 -32 64 -34 85 -98 25 -78 44 -111 63 -111 19 0 53 56
61 103 10 51 45 91 93 105 50 15 80 47 66 69 -6 9 -36 25 -68 36 -64 21 -81
41 -101 118 -19 70 -40 84 -74 50z m84 -205 l27 -22 -26 -18 c-15 -9 -35 -31
-46 -48 l-19 -31 -7 27 c-3 15 -22 39 -41 53 l-35 27 26 13 c14 7 33 27 42 45
l16 31 18 -28 c10 -15 30 -38 45 -49z"/>
<path d="M843 3418 c-6 -7 -16 -31 -22 -53 -15 -55 -19 -60 -76 -87 -69 -32
-73 -61 -13 -88 55 -24 73 -44 89 -99 15 -49 52 -82 72 -62 7 6 23 39 37 73
22 55 31 65 75 87 71 37 73 64 6 88 -47 16 -53 23 -84 83 -33 66 -61 86 -84
58z m58 -159 l29 -31 -30 -34 c-16 -19 -30 -31 -30 -27 0 5 -11 21 -25 36
l-26 27 21 22 c11 12 20 25 20 30 0 15 12 8 41 -23z"/>
<path d="M1046 3065 c-20 -30 -20 -40 0 -70 23 -35 44 -39 71 -14 12 13 23 26
23 30 0 11 -60 79 -70 79 -4 0 -15 -11 -24 -25z"/>
<path d="M5606 2964 l-29 -46 36 -36 37 -36 30 29 c16 16 30 34 30 40 0 13
-59 95 -68 95 -4 0 -20 -21 -36 -46z"/>
<path d="M838 2923 c-7 -16 -26 -40 -43 -55 l-30 -28 26 -22 c14 -13 35 -37
48 -55 24 -35 46 -35 57 0 3 11 20 33 37 48 l30 28 -31 28 c-17 15 -35 40 -41
56 -6 15 -17 27 -26 27 -8 0 -21 -12 -27 -27z"/>
<path d="M5339 2340 c-34 -34 -36 -58 -8 -94 27 -34 81 -36 103 -4 22 31 20
74 -5 97 -35 32 -59 33 -90 1z"/>
<path d="M4701 2228 l-74 -71 24 -19 c13 -11 83 -77 154 -146 72 -70 170 -165
218 -211 47 -46 89 -92 92 -102 4 -11 12 -19 20 -19 23 0 260 259 309 338 30
48 28 57 -11 67 -15 3 -46 20 -68 36 l-40 30 -15 -22 c-23 -34 -152 -169 -162
-169 -5 0 -36 28 -71 63 -34 34 -103 100 -154 145 -59 53 -97 96 -105 118 -7
19 -19 34 -28 34 -8 0 -48 -33 -89 -72z"/>
<path d="M1027 2252 c-23 -26 -21 -75 3 -97 30 -27 88 -25 111 4 24 30 24 52
-2 85 -25 32 -86 37 -112 8z"/>
<path d="M1545 2135 c-162 -63 -160 -63 -287 -132 -75 -42 -134 -67 -165 -71
-43 -6 -48 -10 -51 -36 -3 -23 8 -39 66 -97 37 -38 74 -69 81 -69 6 0 16 11
21 25 8 22 55 55 78 55 5 0 34 -24 64 -52 30 -29 76 -71 102 -93 l47 -40 -18
-35 c-10 -19 -28 -39 -40 -45 -45 -19 -32 -37 89 -121 37 -26 73 -44 81 -41 8
3 17 20 21 39 6 34 47 162 90 283 13 39 41 126 62 195 20 69 39 130 41 136 2
7 -11 14 -29 18 -54 10 -97 42 -114 86 -9 22 -19 40 -23 39 -3 0 -55 -20 -116
-44z m55 -248 c-34 -100 -32 -99 -91 -41 l-51 52 78 38 c53 26 80 35 82 27 2
-7 -6 -41 -18 -76z"/>
<path d="M4554 2073 c-22 -21 -120 -91 -217 -156 l-177 -118 33 -42 c18 -23
41 -54 50 -69 10 -16 22 -28 28 -28 5 0 37 18 70 40 70 46 82 48 97 18 5 -13
34 -51 64 -84 29 -34 60 -70 68 -80 8 -11 43 -52 77 -93 34 -40 65 -86 68
-102 11 -49 55 -33 148 54 57 54 60 78 13 95 -26 10 -69 54 -168 173 -73 89
-135 165 -136 170 -5 12 21 34 92 78 31 19 56 40 56 46 0 6 -14 24 -31 41 -17
16 -39 44 -51 62 -11 17 -25 32 -32 32 -6 0 -30 -17 -52 -37z"/>
<path d="M3225 2072 c-67 -41 -84 -117 -42 -179 43 -64 146 -67 155 -5 4 23
-3 26 -63 22 -43 -2 -65 37 -44 76 12 23 18 25 50 21 39 -5 59 6 59 34 0 41
-69 59 -115 31z"/>
<path d="M2881 2071 c-19 -12 -11 -209 10 -222 8 -5 40 -9 71 -9 45 0 59 4 66
18 16 30 3 42 -44 42 -54 0 -64 27 -12 32 23 2 34 9 36 22 5 23 -14 36 -51 36
-35 0 -32 24 4 28 60 7 70 12 67 35 -3 20 -9 22 -68 25 -36 1 -71 -2 -79 -7z"/>
<path d="M3402 2046 c-34 -32 -37 -39 -36 -87 0 -47 4 -55 37 -85 41 -38 64
-41 107 -19 52 27 72 91 49 152 -30 80 -94 96 -157 39z m92 -52 c35 -34 10
-89 -36 -82 -18 2 -24 10 -26 36 -5 54 29 80 62 46z"/>
<path d="M2760 2020 c0 -48 -1 -50 -29 -50 -26 0 -29 4 -35 45 -6 36 -11 45
-27 45 -29 0 -36 -32 -26 -117 12 -102 21 -125 50 -121 18 2 22 9 23 43 0 35
3 40 26 43 23 3 26 -1 32 -37 5 -35 10 -41 30 -41 32 0 36 14 25 106 -14 124
-17 134 -45 134 -22 0 -24 -4 -24 -50z"/>
<path d="M3670 2063 c-28 -10 -69 -56 -75 -84 -22 -98 79 -185 153 -133 50 34
67 117 37 175 -21 40 -70 58 -115 42z m51 -73 c23 -13 26 -62 4 -80 -8 -7 -25
-10 -40 -6 -20 5 -25 12 -25 39 0 50 23 67 61 47z"/>
<path d="M2485 2045 c-27 -8 -53 -14 -57 -15 -5 0 -8 -11 -8 -24 0 -19 7 -26
30 -31 22 -5 32 -14 36 -33 21 -96 30 -117 51 -120 30 -4 36 23 18 91 -19 75
-19 77 9 77 27 0 37 18 29 49 -6 25 -34 26 -108 6z"/>
<path d="M3844 2047 c-2 -7 -6 -60 -7 -118 l-2 -104 72 -3 c64 -3 72 -1 78 17
8 28 -1 41 -30 41 -51 0 -55 7 -55 90 0 62 -3 79 -16 84 -24 9 -34 7 -40 -7z"/>
<path d="M1925 1939 c-4 -5 0 -24 8 -42 8 -18 22 -90 31 -162 9 -71 19 -142
22 -156 5 -24 -4 -30 -139 -102 -80 -42 -154 -77 -165 -77 -25 0 -35 -14 -28
-38 6 -17 155 -122 175 -122 6 0 16 9 23 21 13 21 157 113 165 106 8 -9 33
-186 31 -218 -3 -31 0 -34 36 -46 21 -7 68 -27 104 -44 72 -33 98 -32 88 4
-26 92 -39 147 -57 252 -12 66 -22 127 -23 135 -1 18 243 180 307 203 34 13
12 39 -58 68 -38 16 -83 36 -98 45 -33 19 -57 12 -57 -16 0 -14 -18 -32 -55
-55 -30 -19 -58 -35 -64 -35 -17 0 -28 112 -16 168 5 22 4 32 -4 32 -7 0 -54
20 -105 45 -99 48 -111 51 -121 34z"/>
<path d="M3883 1692 c-155 -63 -231 -187 -220 -357 6 -100 29 -157 93 -225 64
-69 136 -101 238 -107 168 -11 289 58 367 207 19 37 23 61 24 135 0 82 -3 95
-32 150 -41 79 -102 138 -182 178 -57 28 -77 32 -156 34 -67 2 -101 -2 -132
-15z m203 -171 c76 -35 114 -96 114 -185 0 -84 -45 -138 -130 -157 -62 -14
-119 3 -162 49 -59 64 -73 145 -37 219 41 85 126 114 215 74z"/>
<path d="M2659 1620 c-112 -19 -231 -115 -269 -216 -27 -73 -29 -200 -5 -274
24 -73 115 -168 197 -206 55 -25 74 -29 158 -29 82 0 103 4 152 27 70 32 143
104 183 178 24 46 30 70 33 142 4 80 2 92 -26 151 -49 105 -123 174 -227 210
-54 19 -141 27 -196 17z m147 -199 c64 -29 97 -80 102 -157 3 -49 0 -72 -17
-106 -56 -115 -209 -130 -294 -28 -74 87 -47 234 52 287 53 28 102 29 157 4z"/>
<path d="M3213 1573 c-56 -4 -61 -11 -39 -46 16 -24 41 -376 41 -564 0 -82 3
-103 15 -106 28 -6 397 23 477 39 19 3 21 8 14 27 -4 12 -11 47 -15 77 -11 90
-24 120 -52 120 -17 0 -25 -7 -30 -24 -7 -31 -41 -43 -139 -52 l-73 -7 -6 44
c-3 24 -13 131 -21 238 -14 175 -14 197 0 218 9 13 13 28 10 33 -6 10 -71 10
-182 3z"/>
</g>
</svg>
